<mxfile host="app.diagrams.net" agent="Mozilla/5.0 (Windows NT 10.0; Win64; x64) AppleWebKit/537.36 (KHTML, like Gecko) Chrome/135.0.0.0 Safari/537.36 Edg/135.0.0.0" version="26.2.14">
  <diagram name="Page-1" id="Di3NyihaP6rdnsYqCnTH">
    <mxGraphModel dx="5329" dy="4324" grid="1" gridSize="10" guides="1" tooltips="1" connect="1" arrows="1" fold="1" page="1" pageScale="1" pageWidth="1200" pageHeight="1600" math="0" shadow="0">
      <root>
        <mxCell id="0" />
        <mxCell id="1" parent="0" />
        <mxCell id="CNmx0pbgEwlU0NE3-MJE-1" value="" style="shape=image;verticalLabelPosition=bottom;labelBackgroundColor=default;verticalAlign=top;aspect=fixed;imageAspect=0;image=https://cdn-icons-png.flaticon.com/128/10224/10224836.png;" vertex="1" parent="1">
          <mxGeometry x="-3125" y="-2830" width="180" height="180" as="geometry" />
        </mxCell>
        <mxCell id="CNmx0pbgEwlU0NE3-MJE-2" value="&lt;font style=&quot;font-size: 24px;&quot;&gt;Main&lt;/font&gt;&lt;div&gt;&lt;font style=&quot;font-size: 24px;&quot;&gt;Memory&lt;/font&gt;&lt;/div&gt;" style="text;html=1;align=center;verticalAlign=middle;whiteSpace=wrap;rounded=0;" vertex="1" parent="1">
          <mxGeometry x="-3104" y="-2890" width="130" height="50" as="geometry" />
        </mxCell>
        <mxCell id="CNmx0pbgEwlU0NE3-MJE-3" value="Bus" style="rounded=1;whiteSpace=wrap;html=1;" vertex="1" parent="1">
          <mxGeometry x="-3310" y="-2600" width="570" height="60" as="geometry" />
        </mxCell>
        <mxCell id="CNmx0pbgEwlU0NE3-MJE-5" value="" style="shape=image;verticalLabelPosition=bottom;labelBackgroundColor=default;verticalAlign=top;aspect=fixed;imageAspect=0;image=https://cdn-icons-png.flaticon.com/128/15496/15496371.png;" vertex="1" parent="1">
          <mxGeometry x="-3297.5" y="-2462" width="132" height="132" as="geometry" />
        </mxCell>
        <mxCell id="CNmx0pbgEwlU0NE3-MJE-10" value="" style="shape=image;verticalLabelPosition=bottom;labelBackgroundColor=default;verticalAlign=top;aspect=fixed;imageAspect=0;image=https://as2.ftcdn.net/v2/jpg/04/72/67/47/1000_F_472674757_xcvQ3eYvWrIAPUeNHwnyFHxEAMSlXXRo.jpg;" vertex="1" parent="1">
          <mxGeometry x="-2820" y="-2469" width="140" height="140" as="geometry" />
        </mxCell>
        <mxCell id="CNmx0pbgEwlU0NE3-MJE-11" value="" style="shape=image;verticalLabelPosition=bottom;labelBackgroundColor=default;verticalAlign=top;aspect=fixed;imageAspect=0;image=https://cdn-icons-png.flaticon.com/128/10256/10256306.png;" vertex="1" parent="1">
          <mxGeometry x="-3300" y="-2280" width="130" height="130" as="geometry" />
        </mxCell>
        <mxCell id="CNmx0pbgEwlU0NE3-MJE-59" style="edgeStyle=orthogonalEdgeStyle;rounded=0;orthogonalLoop=1;jettySize=auto;html=1;exitX=0.5;exitY=0;exitDx=0;exitDy=0;" edge="1" parent="1" source="CNmx0pbgEwlU0NE3-MJE-12" target="CNmx0pbgEwlU0NE3-MJE-44">
          <mxGeometry relative="1" as="geometry" />
        </mxCell>
        <mxCell id="CNmx0pbgEwlU0NE3-MJE-12" value="" style="shape=image;verticalLabelPosition=bottom;labelBackgroundColor=default;verticalAlign=top;aspect=fixed;imageAspect=0;image=https://cdn-icons-png.flaticon.com/128/10256/10256306.png;" vertex="1" parent="1">
          <mxGeometry x="-3124" y="-2280" width="130" height="130" as="geometry" />
        </mxCell>
        <mxCell id="CNmx0pbgEwlU0NE3-MJE-14" style="edgeStyle=orthogonalEdgeStyle;rounded=0;orthogonalLoop=1;jettySize=auto;html=1;entryX=0.482;entryY=-0.004;entryDx=0;entryDy=0;entryPerimeter=0;" edge="1" parent="1" source="CNmx0pbgEwlU0NE3-MJE-1" target="CNmx0pbgEwlU0NE3-MJE-3">
          <mxGeometry relative="1" as="geometry" />
        </mxCell>
        <mxCell id="CNmx0pbgEwlU0NE3-MJE-15" value="&lt;h3&gt;&lt;font style=&quot;font-size: 17px;&quot;&gt;Multiple Processor&lt;/font&gt;&lt;/h3&gt;" style="text;html=1;align=center;verticalAlign=middle;whiteSpace=wrap;rounded=0;" vertex="1" parent="1">
          <mxGeometry x="-2510" y="-2990" width="930" height="30" as="geometry" />
        </mxCell>
        <mxCell id="CNmx0pbgEwlU0NE3-MJE-16" style="edgeStyle=orthogonalEdgeStyle;rounded=0;orthogonalLoop=1;jettySize=auto;html=1;exitX=0.5;exitY=1;exitDx=0;exitDy=0;entryX=0.5;entryY=0;entryDx=0;entryDy=0;" edge="1" parent="1" source="CNmx0pbgEwlU0NE3-MJE-17" target="CNmx0pbgEwlU0NE3-MJE-21">
          <mxGeometry relative="1" as="geometry" />
        </mxCell>
        <mxCell id="CNmx0pbgEwlU0NE3-MJE-17" value="" style="shape=image;verticalLabelPosition=bottom;labelBackgroundColor=default;verticalAlign=top;aspect=fixed;imageAspect=0;image=https://cdn-icons-png.flaticon.com/128/689/689379.png;" vertex="1" parent="1">
          <mxGeometry x="-2130" y="-2890" width="200" height="200" as="geometry" />
        </mxCell>
        <mxCell id="CNmx0pbgEwlU0NE3-MJE-18" style="edgeStyle=orthogonalEdgeStyle;rounded=0;orthogonalLoop=1;jettySize=auto;html=1;exitX=0.5;exitY=1;exitDx=0;exitDy=0;entryX=0.5;entryY=0;entryDx=0;entryDy=0;" edge="1" parent="1" source="CNmx0pbgEwlU0NE3-MJE-21" target="CNmx0pbgEwlU0NE3-MJE-24">
          <mxGeometry relative="1" as="geometry" />
        </mxCell>
        <mxCell id="CNmx0pbgEwlU0NE3-MJE-19" style="edgeStyle=orthogonalEdgeStyle;rounded=0;orthogonalLoop=1;jettySize=auto;html=1;exitX=0.5;exitY=1;exitDx=0;exitDy=0;" edge="1" parent="1" source="CNmx0pbgEwlU0NE3-MJE-21" target="CNmx0pbgEwlU0NE3-MJE-22">
          <mxGeometry relative="1" as="geometry" />
        </mxCell>
        <mxCell id="CNmx0pbgEwlU0NE3-MJE-20" style="edgeStyle=orthogonalEdgeStyle;rounded=0;orthogonalLoop=1;jettySize=auto;html=1;exitX=0.5;exitY=1;exitDx=0;exitDy=0;entryX=0.5;entryY=0;entryDx=0;entryDy=0;" edge="1" parent="1" source="CNmx0pbgEwlU0NE3-MJE-21" target="CNmx0pbgEwlU0NE3-MJE-23">
          <mxGeometry relative="1" as="geometry" />
        </mxCell>
        <mxCell id="CNmx0pbgEwlU0NE3-MJE-21" value="" style="shape=image;verticalLabelPosition=bottom;labelBackgroundColor=default;verticalAlign=top;aspect=fixed;imageAspect=0;image=https://cdn-icons-png.flaticon.com/128/10224/10224836.png;" vertex="1" parent="1">
          <mxGeometry x="-2095" y="-2640" width="130" height="130" as="geometry" />
        </mxCell>
        <mxCell id="CNmx0pbgEwlU0NE3-MJE-22" value="" style="shape=image;verticalLabelPosition=bottom;labelBackgroundColor=default;verticalAlign=top;aspect=fixed;imageAspect=0;image=https://cdn-icons-png.flaticon.com/128/984/984442.png;" vertex="1" parent="1">
          <mxGeometry x="-2290" y="-2419" width="109" height="109" as="geometry" />
        </mxCell>
        <mxCell id="CNmx0pbgEwlU0NE3-MJE-23" value="" style="shape=image;verticalLabelPosition=bottom;labelBackgroundColor=default;verticalAlign=top;aspect=fixed;imageAspect=0;image=https://cdn-icons-png.flaticon.com/128/984/984442.png;" vertex="1" parent="1">
          <mxGeometry x="-1854" y="-2419" width="109" height="109" as="geometry" />
        </mxCell>
        <mxCell id="CNmx0pbgEwlU0NE3-MJE-24" value="" style="shape=image;verticalLabelPosition=bottom;labelBackgroundColor=default;verticalAlign=top;aspect=fixed;imageAspect=0;image=https://cdn-icons-png.flaticon.com/128/984/984442.png;" vertex="1" parent="1">
          <mxGeometry x="-2085" y="-2420" width="110" height="110" as="geometry" />
        </mxCell>
        <mxCell id="CNmx0pbgEwlU0NE3-MJE-29" value="cache" style="text;html=1;align=center;verticalAlign=middle;whiteSpace=wrap;rounded=0;" vertex="1" parent="1">
          <mxGeometry x="-3360" y="-2370" width="70" height="40" as="geometry" />
        </mxCell>
        <mxCell id="CNmx0pbgEwlU0NE3-MJE-30" value="&lt;span style=&quot;color: rgb(0, 0, 0); font-family: Helvetica; font-size: 12px; font-style: normal; font-variant-ligatures: normal; font-variant-caps: normal; font-weight: 400; letter-spacing: normal; orphans: 2; text-align: center; text-indent: 0px; text-transform: none; widows: 2; word-spacing: 0px; -webkit-text-stroke-width: 0px; white-space: normal; background-color: rgb(236, 236, 236); text-decoration-thickness: initial; text-decoration-style: initial; text-decoration-color: initial; display: inline !important; float: none;&quot;&gt;cache&lt;/span&gt;" style="text;whiteSpace=wrap;html=1;" vertex="1" parent="1">
          <mxGeometry x="-3160" y="-2360" width="100" height="50" as="geometry" />
        </mxCell>
        <mxCell id="CNmx0pbgEwlU0NE3-MJE-31" value="&lt;span style=&quot;color: rgb(0, 0, 0); font-family: Helvetica; font-size: 12px; font-style: normal; font-variant-ligatures: normal; font-variant-caps: normal; font-weight: 400; letter-spacing: normal; orphans: 2; text-align: center; text-indent: 0px; text-transform: none; widows: 2; word-spacing: 0px; -webkit-text-stroke-width: 0px; white-space: normal; background-color: rgb(236, 236, 236); text-decoration-thickness: initial; text-decoration-style: initial; text-decoration-color: initial; display: inline !important; float: none;&quot;&gt;cache&lt;/span&gt;" style="text;whiteSpace=wrap;html=1;" vertex="1" parent="1">
          <mxGeometry x="-3010" y="-2350" width="110" height="60" as="geometry" />
        </mxCell>
        <mxCell id="CNmx0pbgEwlU0NE3-MJE-33" value="&lt;span style=&quot;color: rgb(0, 0, 0); font-family: Helvetica; font-size: 12px; font-style: normal; font-variant-ligatures: normal; font-variant-caps: normal; font-weight: 400; letter-spacing: normal; orphans: 2; text-align: center; text-indent: 0px; text-transform: none; widows: 2; word-spacing: 0px; -webkit-text-stroke-width: 0px; white-space: normal; background-color: rgb(236, 236, 236); text-decoration-thickness: initial; text-decoration-style: initial; text-decoration-color: initial; display: inline !important; float: none;&quot;&gt;Processor&lt;/span&gt;" style="text;whiteSpace=wrap;html=1;" vertex="1" parent="1">
          <mxGeometry x="-2920" y="-2130" width="90" height="40" as="geometry" />
        </mxCell>
        <mxCell id="CNmx0pbgEwlU0NE3-MJE-34" value="&lt;span style=&quot;color: rgb(0, 0, 0); font-family: Helvetica; font-size: 12px; font-style: normal; font-variant-ligatures: normal; font-variant-caps: normal; font-weight: 400; letter-spacing: normal; orphans: 2; text-align: center; text-indent: 0px; text-transform: none; widows: 2; word-spacing: 0px; -webkit-text-stroke-width: 0px; white-space: normal; background-color: rgb(236, 236, 236); text-decoration-thickness: initial; text-decoration-style: initial; text-decoration-color: initial; display: inline !important; float: none;&quot;&gt;Processor&lt;/span&gt;" style="text;whiteSpace=wrap;html=1;" vertex="1" parent="1">
          <mxGeometry x="-3104" y="-2130" width="90" height="40" as="geometry" />
        </mxCell>
        <mxCell id="CNmx0pbgEwlU0NE3-MJE-35" value="&lt;font style=&quot;font-size: 16px;&quot;&gt;Main Memory&lt;/font&gt;" style="text;html=1;align=center;verticalAlign=middle;whiteSpace=wrap;rounded=0;" vertex="1" parent="1">
          <mxGeometry x="-1930" y="-2590" width="110" height="40" as="geometry" />
        </mxCell>
        <mxCell id="CNmx0pbgEwlU0NE3-MJE-36" value="&lt;font style=&quot;font-size: 16px;&quot;&gt;CPU&lt;/font&gt;" style="text;html=1;align=center;verticalAlign=middle;whiteSpace=wrap;rounded=0;" vertex="1" parent="1">
          <mxGeometry x="-1900" y="-2810" width="110" height="60" as="geometry" />
        </mxCell>
        <mxCell id="CNmx0pbgEwlU0NE3-MJE-37" value="CPU" style="text;html=1;align=center;verticalAlign=middle;whiteSpace=wrap;rounded=0;" vertex="1" parent="1">
          <mxGeometry x="-1820" y="-2310" width="60" height="30" as="geometry" />
        </mxCell>
        <mxCell id="CNmx0pbgEwlU0NE3-MJE-38" value="CPU" style="text;html=1;align=center;verticalAlign=middle;whiteSpace=wrap;rounded=0;" vertex="1" parent="1">
          <mxGeometry x="-2050" y="-2307" width="60" height="30" as="geometry" />
        </mxCell>
        <mxCell id="CNmx0pbgEwlU0NE3-MJE-39" value="CPU" style="text;html=1;align=center;verticalAlign=middle;whiteSpace=wrap;rounded=0;" vertex="1" parent="1">
          <mxGeometry x="-2270.5" y="-2307" width="60" height="30" as="geometry" />
        </mxCell>
        <mxCell id="CNmx0pbgEwlU0NE3-MJE-40" value="I/O" style="text;html=1;align=center;verticalAlign=middle;whiteSpace=wrap;rounded=0;" vertex="1" parent="1">
          <mxGeometry x="-2790" y="-2320" width="90" height="56" as="geometry" />
        </mxCell>
        <mxCell id="CNmx0pbgEwlU0NE3-MJE-41" value="&lt;font style=&quot;font-size: 27px;&quot;&gt;&amp;nbsp;Multiprosesor Symmetric&lt;/font&gt;" style="text;html=1;align=center;verticalAlign=middle;whiteSpace=wrap;rounded=0;" vertex="1" parent="1">
          <mxGeometry x="-3330" y="-3020" width="540" height="90" as="geometry" />
        </mxCell>
        <mxCell id="CNmx0pbgEwlU0NE3-MJE-43" value="" style="shape=image;verticalLabelPosition=bottom;labelBackgroundColor=default;verticalAlign=top;aspect=fixed;imageAspect=0;image=https://cdn-icons-png.flaticon.com/128/15496/15496371.png;" vertex="1" parent="1">
          <mxGeometry x="-2982" y="-2461" width="132" height="132" as="geometry" />
        </mxCell>
        <mxCell id="CNmx0pbgEwlU0NE3-MJE-44" value="" style="shape=image;verticalLabelPosition=bottom;labelBackgroundColor=default;verticalAlign=top;aspect=fixed;imageAspect=0;image=https://cdn-icons-png.flaticon.com/128/15496/15496371.png;" vertex="1" parent="1">
          <mxGeometry x="-3125" y="-2461" width="132" height="132" as="geometry" />
        </mxCell>
        <mxCell id="CNmx0pbgEwlU0NE3-MJE-56" style="edgeStyle=orthogonalEdgeStyle;rounded=0;orthogonalLoop=1;jettySize=auto;html=1;exitX=0.5;exitY=0;exitDx=0;exitDy=0;" edge="1" parent="1" source="CNmx0pbgEwlU0NE3-MJE-47" target="CNmx0pbgEwlU0NE3-MJE-43">
          <mxGeometry relative="1" as="geometry" />
        </mxCell>
        <mxCell id="CNmx0pbgEwlU0NE3-MJE-47" value="" style="shape=image;verticalLabelPosition=bottom;labelBackgroundColor=default;verticalAlign=top;aspect=fixed;imageAspect=0;image=https://cdn-icons-png.flaticon.com/128/10256/10256306.png;" vertex="1" parent="1">
          <mxGeometry x="-2980" y="-2280" width="130" height="130" as="geometry" />
        </mxCell>
        <mxCell id="CNmx0pbgEwlU0NE3-MJE-48" value="&lt;span style=&quot;color: rgb(0, 0, 0); font-family: Helvetica; font-size: 12px; font-style: normal; font-variant-ligatures: normal; font-variant-caps: normal; font-weight: 400; letter-spacing: normal; orphans: 2; text-align: center; text-indent: 0px; text-transform: none; widows: 2; word-spacing: 0px; -webkit-text-stroke-width: 0px; white-space: normal; background-color: rgb(236, 236, 236); text-decoration-thickness: initial; text-decoration-style: initial; text-decoration-color: initial; display: inline !important; float: none;&quot;&gt;Processor&lt;/span&gt;" style="text;whiteSpace=wrap;html=1;" vertex="1" parent="1">
          <mxGeometry x="-3270" y="-2130" width="90" height="40" as="geometry" />
        </mxCell>
        <mxCell id="CNmx0pbgEwlU0NE3-MJE-49" style="edgeStyle=orthogonalEdgeStyle;rounded=0;orthogonalLoop=1;jettySize=auto;html=1;exitX=0.5;exitY=0;exitDx=0;exitDy=0;entryX=0.137;entryY=1.046;entryDx=0;entryDy=0;entryPerimeter=0;" edge="1" parent="1" source="CNmx0pbgEwlU0NE3-MJE-5" target="CNmx0pbgEwlU0NE3-MJE-3">
          <mxGeometry relative="1" as="geometry" />
        </mxCell>
        <mxCell id="CNmx0pbgEwlU0NE3-MJE-50" style="edgeStyle=orthogonalEdgeStyle;rounded=0;orthogonalLoop=1;jettySize=auto;html=1;exitX=0.5;exitY=0;exitDx=0;exitDy=0;entryX=0.441;entryY=1;entryDx=0;entryDy=0;entryPerimeter=0;" edge="1" parent="1" source="CNmx0pbgEwlU0NE3-MJE-44" target="CNmx0pbgEwlU0NE3-MJE-3">
          <mxGeometry relative="1" as="geometry" />
        </mxCell>
        <mxCell id="CNmx0pbgEwlU0NE3-MJE-52" style="edgeStyle=orthogonalEdgeStyle;rounded=0;orthogonalLoop=1;jettySize=auto;html=1;exitX=0.5;exitY=0;exitDx=0;exitDy=0;entryX=0.691;entryY=0.948;entryDx=0;entryDy=0;entryPerimeter=0;" edge="1" parent="1" source="CNmx0pbgEwlU0NE3-MJE-43" target="CNmx0pbgEwlU0NE3-MJE-3">
          <mxGeometry relative="1" as="geometry" />
        </mxCell>
        <mxCell id="CNmx0pbgEwlU0NE3-MJE-53" style="edgeStyle=orthogonalEdgeStyle;rounded=0;orthogonalLoop=1;jettySize=auto;html=1;exitX=0.5;exitY=0;exitDx=0;exitDy=0;entryX=0.896;entryY=1.046;entryDx=0;entryDy=0;entryPerimeter=0;" edge="1" parent="1" source="CNmx0pbgEwlU0NE3-MJE-10" target="CNmx0pbgEwlU0NE3-MJE-3">
          <mxGeometry relative="1" as="geometry" />
        </mxCell>
        <mxCell id="CNmx0pbgEwlU0NE3-MJE-58" style="edgeStyle=orthogonalEdgeStyle;rounded=0;orthogonalLoop=1;jettySize=auto;html=1;exitX=0.5;exitY=0;exitDx=0;exitDy=0;entryX=0.475;entryY=0.924;entryDx=0;entryDy=0;entryPerimeter=0;" edge="1" parent="1" source="CNmx0pbgEwlU0NE3-MJE-11" target="CNmx0pbgEwlU0NE3-MJE-5">
          <mxGeometry relative="1" as="geometry" />
        </mxCell>
      </root>
    </mxGraphModel>
  </diagram>
</mxfile>
